SplineFontDB: 3.0
FontName: NyStormningGrK
FullName: Ny Stormning Gren Kursiv
FamilyName: Ny Stormning
Weight: Gren
Copyright: Copyright (c) 2016, Mew Too/Cannot Into Space Fonts, Robert Jablonski/Cannot Into Space Fonts, All Rights Reserved.
Version: 0.90
ItalicAngle: 0
UnderlinePosition: -100
UnderlineWidth: 50
Ascent: 800
Descent: 200
InvalidEm: 0
sfntRevision: 0x0000e666
LayerCount: 2
Layer: 0 0 "Back" 1
Layer: 1 0 "Fore" 0
XUID: [1021 908 -2008021153 9976829]
StyleMap: 0x0000
FSType: 0
OS2Version: 4
OS2_WeightWidthSlopeOnly: 0
OS2_UseTypoMetrics: 1
CreationTime: 1422214609
ModificationTime: 1452319476
PfmFamily: 33
TTFWeight: 400
TTFWidth: 5
LineGap: 90
VLineGap: 0
Panose: 2 0 5 3 0 0 0 0 0 0
OS2TypoAscent: 800
OS2TypoAOffset: 0
OS2TypoDescent: -200
OS2TypoDOffset: 0
OS2TypoLinegap: 90
OS2WinAscent: 904
OS2WinAOffset: 0
OS2WinDescent: 1
OS2WinDOffset: 0
HheadAscent: 904
HheadAOffset: 0
HheadDescent: -1
HheadDOffset: 0
OS2SubXSize: 650
OS2SubYSize: 699
OS2SubXOff: 0
OS2SubYOff: 140
OS2SupXSize: 650
OS2SupYSize: 699
OS2SupXOff: 0
OS2SupYOff: 479
OS2StrikeYSize: 49
OS2StrikeYPos: 258
OS2CapHeight: 860
OS2XHeight: 860
OS2FamilyClass: 2048
OS2Vendor: 'CiSf'
OS2CodePages: 00000001.00000000
OS2UnicodeRanges: 00000007.00000000.00000000.00000000
Lookup: 258 0 0 "'kern' Horizontal Kerning in Latin lookup 0" { "'kern' Horizontal Kerning in Latin lookup 0-1" [100,10,2] } ['kern' ('DFLT' <'dflt' > 'latn' <'dflt' > ) ]
MarkAttachClasses: 1
DEI: 91125

StartChar: .notdef
Encoding: 65536 -1 0
Width: 445
Flags: W
HStem: 10 30<63 383> 493 30<119 439>
LayerCount: 2
Fore
SplineSet
119 493 m 1
 63 40 l 1
 383 40 l 1
 439 493 l 1
 119 493 l 1
409 10 m 1
 29 10 l 1
 92 523 l 1
 472 523 l 1
 409 10 l 1
EndSplineSet
EndChar

StartChar: comma
Encoding: 44 44 2
Width: 210
Flags: W
HStem: 324 156<106.193 194.147>
VStem: 75 150<355.365 448.635>
LayerCount: 2
Fore
SplineSet
140 324 m 0
 100 324 70 359 75 402 c 0
 80 445 119 480 159 480 c 0
 199 480 230 445 225 402 c 0
 220 359 180 324 140 324 c 0
EndSplineSet
EndChar

StartChar: period
Encoding: 46 46 3
Width: 212
Flags: W
HStem: 176 157<90.3549 176.807> 435 157<122.193 208.645>
VStem: 58 183
LayerCount: 2
Fore
SplineSet
124 176 m 0
 84 176 53 211 58 254 c 0
 63 297 103 333 143 333 c 0
 183 333 213 297 208 254 c 0
 203 211 164 176 124 176 c 0
156 435 m 0
 116 435 86 471 91 514 c 0
 96 557 136 592 176 592 c 0
 216 592 246 557 241 514 c 0
 236 471 196 435 156 435 c 0
EndSplineSet
EndChar

StartChar: zero
Encoding: 48 48 4
Width: 832
Flags: W
HStem: 389 91<305.808 400> 807 20G<347.5 684>
LayerCount: 2
Fore
SplineSet
537 479 m 1
 548 480 l 2
 644 486 753 525 762 601 c 0
 762 602 l 0
 765 668 712 691 578 717 c 0
 566 719 l 1
 537 479 l 1
526 388 m 1
 480 20 l 1
 354 20 l 1
 400 388 l 1
 391 389 l 0
 235 407 95 532 103 611 c 1
 119 698 251 819 444 827 c 1
 588 827 l 1
 780 819 883 697 877 611 c 1
 865 531 694 407 535 389 c 0
 526 388 l 1
400 480 m 0
 411 479 l 1
 440 719 l 1
 428 717 l 0
 288 691 229 668 216 602 c 0
 216 601 l 1
 207 525 306 486 400 480 c 0
EndSplineSet
EndChar

StartChar: one
Encoding: 49 49 5
Width: 426
Flags: W
HStem: 784 76<246 491>
LayerCount: 2
Fore
SplineSet
246 784 m 1
 152 20 l 1
 35 20 l 1
 139 860 l 1
 501 860 l 1
 491 784 l 1
 246 784 l 1
EndSplineSet
EndChar

StartChar: two
Encoding: 50 50 6
Width: 429
Flags: W
HStem: 639 77<238 474> 784 76<246 492>
LayerCount: 2
Fore
SplineSet
152 20 m 1
 35 20 l 1
 139 860 l 1
 502 860 l 1
 492 784 l 1
 246 784 l 1
 238 716 l 1
 484 716 l 1
 474 639 l 1
 228 639 l 1
 152 20 l 1
EndSplineSet
EndChar

StartChar: three
Encoding: 51 51 7
Width: 430
Flags: W
HStem: 486 77<219 455> 632 81<238 473> 784 76<246 491>
LayerCount: 2
Fore
SplineSet
151 10 m 1
 34 10 l 1
 139 860 l 1
 501 860 l 1
 491 784 l 1
 246 784 l 1
 238 713 l 1
 483 713 l 1
 473 632 l 1
 228 632 l 1
 219 563 l 1
 464 563 l 1
 455 486 l 1
 210 486 l 1
 151 10 l 1
EndSplineSet
EndChar

StartChar: four
Encoding: 52 52 8
Width: 432
Flags: W
HStem: 346 77<202 437> 486 77<219 455> 632 81<238 473> 784 76<246 491>
LayerCount: 2
Fore
SplineSet
151 10 m 1
 34 10 l 1
 139 860 l 1
 501 860 l 1
 491 784 l 1
 246 784 l 1
 238 713 l 1
 483 713 l 1
 473 632 l 1
 228 632 l 1
 219 563 l 1
 464 563 l 1
 455 486 l 1
 210 486 l 1
 202 423 l 1
 447 423 l 1
 437 346 l 1
 192 346 l 1
 151 10 l 1
EndSplineSet
EndChar

StartChar: five
Encoding: 53 53 9
Width: 513
Flags: W
HStem: 807 20G<133.497 366>
LayerCount: 2
Fore
SplineSet
217 479 m 1
 228 480 l 2
 323 486 434 525 443 601 c 0
 443 602 l 0
 446 669 392 691 258 717 c 0
 246 719 l 1
 217 479 l 1
35 20 m 1
 136 827 l 1
 270 827 l 1
 462 819 564 697 558 611 c 1
 546 531 375 407 216 389 c 0
 207 388 l 1
 161 20 l 1
 35 20 l 1
EndSplineSet
EndChar

StartChar: six
Encoding: 54 54 10
Width: 513
Flags: W
HStem: 321 39<213 378> 380 99<217 304.576> 807 20G<133.503 366>
VStem: 34 126<10 66.0686>
LayerCount: 2
Fore
SplineSet
34 10 m 1
 136 827 l 1
 270 827 l 1
 462 819 563 694 557 606 c 1
 545 524 374 398 215 380 c 1
 213 360 l 1
 383 360 l 1
 378 321 l 1
 198 321 l 1
 160 10 l 1
 34 10 l 1
217 479 m 1
 228 480 l 2
 323 486 434 525 443 601 c 0
 443 602 l 0
 446 669 392 691 258 717 c 0
 246 719 l 1
 217 479 l 1
EndSplineSet
EndChar

StartChar: seven
Encoding: 55 55 11
Width: 512
Flags: W
HStem: 233 39<192 368> 321 39<213 378> 380 99<217 304.576> 807 20G<133.503 366>
VStem: 34 126<10 65.75>
LayerCount: 2
Fore
SplineSet
34 10 m 1
 136 827 l 1
 270 827 l 1
 462 819 563 694 557 606 c 1
 545 524 374 398 215 380 c 1
 213 360 l 1
 383 360 l 1
 378 321 l 1
 198 321 l 1
 192 272 l 1
 372 272 l 1
 368 233 l 1
 188 233 l 1
 160 10 l 1
 34 10 l 1
217 479 m 1
 228 480 l 2
 323 486 434 525 443 601 c 0
 443 602 l 0
 446 669 392 691 258 717 c 0
 246 719 l 1
 217 479 l 1
EndSplineSet
EndChar

StartChar: eight
Encoding: 56 56 12
Width: 512
Flags: W
HStem: 145 39<182 357> 233 39<192 368> 321 39<213 378> 380 99<217 304.576> 807 20G<133.503 366>
LayerCount: 2
Fore
SplineSet
34 10 m 1
 136 827 l 1
 270 827 l 1
 462 819 563 694 557 606 c 1
 545 524 374 398 215 380 c 1
 213 360 l 1
 383 360 l 1
 378 321 l 1
 198 321 l 1
 192 272 l 1
 372 272 l 1
 368 233 l 1
 188 233 l 1
 182 184 l 1
 362 184 l 1
 357 145 l 1
 177 145 l 1
 160 10 l 1
 34 10 l 1
217 479 m 1
 228 480 l 2
 323 486 434 525 443 601 c 0
 443 602 l 0
 446 669 392 691 258 717 c 0
 246 719 l 1
 217 479 l 1
EndSplineSet
EndChar

StartChar: nine
Encoding: 57 57 13
Width: 512
Flags: W
HStem: 57 39<171 346> 145 39<182 357> 233 39<192 368> 321 39<213 378> 380 99<217 304.576> 807 20G<133.503 366>
LayerCount: 2
Fore
SplineSet
34 10 m 1
 136 827 l 1
 270 827 l 1
 462 819 563 694 557 606 c 1
 545 524 374 398 215 380 c 1
 213 360 l 1
 383 360 l 1
 378 321 l 1
 198 321 l 1
 192 272 l 1
 372 272 l 1
 368 233 l 1
 188 233 l 1
 182 184 l 1
 362 184 l 1
 357 145 l 1
 177 145 l 1
 171 96 l 1
 351 96 l 1
 346 57 l 1
 166 57 l 1
 160 10 l 1
 34 10 l 1
217 479 m 1
 228 480 l 2
 323 486 434 525 443 601 c 0
 443 602 l 0
 446 669 392 691 258 717 c 0
 246 719 l 1
 217 479 l 1
EndSplineSet
EndChar

StartChar: colon
Encoding: 58 58 14
Width: 745
Flags: W
LayerCount: 2
Fore
SplineSet
532 11 m 1
 463 12 l 1
 277 12 l 1
 206 11 l 1
 362 307 l 1
 51 188 l 1
 91 515 l 1
 373 396 l 1
 290 692 l 1
 361 691 l 1
 545 691 l 1
 616 692 l 1
 461 396 l 1
 771 515 l 1
 731 188 l 1
 450 307 l 1
 532 11 l 1
EndSplineSet
EndChar

StartChar: at
Encoding: 64 64 15
Width: 847
Flags: W
HStem: 840 20G<136.524 339.167>
LayerCount: 2
Fore
SplineSet
720 778 m 1
 626 20 l 1
 509 20 l 1
 603 778 l 1
 423 703 l 1
 419 730 l 1
 246 778 l 1
 233 676 l 1
 373 639 l 1
 339 561 l 1
 223 594 l 1
 152 20 l 1
 35 20 l 1
 139 860 l 1
 265 860 l 1
 443 812 l 1
 434 794 l 1
 681 903 l 1
 914 783 l 1
 881 703 l 1
 720 778 l 1
EndSplineSet
EndChar

StartChar: A
Encoding: 65 65 16
Width: 373
Flags: W
HStem: 830 20G<133.548 332.833>
LayerCount: 2
Fore
SplineSet
33 10 m 1
 136 850 l 1
 257 850 l 1
 439 802 l 1
 407 722 l 1
 238 768 l 1
 226 666 l 1
 371 629 l 1
 337 551 l 1
 216 584 l 1
 145 10 l 1
 33 10 l 1
EndSplineSet
EndChar

StartChar: B
Encoding: 66 66 17
Width: 537
Flags: W
HStem: 797 20G<129.546 276.418>
LayerCount: 2
Fore
SplineSet
533 261 m 1
 152 10 l 1
 33 10 l 1
 132 817 l 1
 251 817 l 1
 570 566 l 1
 327 414 l 1
 533 261 l 1
195 416 m 1
 194 411 l 1
 198 414 l 1
 195 416 l 1
195 416 m 1
 194 411 l 1
 156 101 l 1
 408 261 l 1
 198 414 l 1
 445 566 l 1
 233 726 l 1
 195 416 l 1
EndSplineSet
EndChar

StartChar: C
Encoding: 67 67 18
Width: 346
Flags: W
HStem: 796 20G<393.902 408.419>
VStem: 81 330
LayerCount: 2
Fore
SplineSet
81 430 m 1
 411 816 l 1
 391 661 l 1
 202 430 l 1
 334 199 l 1
 316 44 l 1
 81 430 l 1
EndSplineSet
EndChar

StartChar: D
Encoding: 68 68 19
Width: 666
Flags: W
HStem: 830 20G<133.548 260.959 601.057 732>
LayerCount: 2
Fore
SplineSet
555 178 m 1
 617 682 l 1
 439 430 l 1
 555 178 l 1
211 682 m 1
 149 178 l 1
 326 430 l 1
 211 682 l 1
149 10 m 1
 33 10 l 1
 136 850 l 1
 252 850 l 1
 394 533 l 1
 615 850 l 1
 732 850 l 1
 629 10 l 1
 512 10 l 1
 369 327 l 1
 149 10 l 1
EndSplineSet
EndChar

StartChar: E
Encoding: 69 69 20
Width: 715
Flags: W
LayerCount: 2
Fore
SplineSet
567 20 m 1
 656 738 l 1
 428 599 l 1
 235 738 l 1
 146 20 l 1
 34 20 l 1
 143 903 l 1
 190 904 l 1
 440 694 l 1
 741 904 l 1
 788 903 l 1
 679 20 l 1
 567 20 l 1
EndSplineSet
EndChar

StartChar: F
Encoding: 70 70 21
Width: 525
Flags: W
HStem: 831 20G<133.548 248 444.237 587>
LayerCount: 2
Fore
SplineSet
145 10 m 1
 33 11 l 1
 136 851 l 1
 248 851 l 1
 220 615 l 1
 465 851 l 1
 587 851 l 1
 201 467 l 1
 188 359 l 1
 435 588 l 1
 556 588 l 1
 170 211 l 1
 145 10 l 1
EndSplineSet
EndChar

StartChar: G
Encoding: 71 71 22
Width: 625
Flags: W
HStem: 752 86<359.167 425.329> 830 20G<133.548 248 569 697>
VStem: 351 83<761.094 830.137>
LayerCount: 2
Fore
SplineSet
207 514 m 1x60
 221 519 l 2
 341 562 531 699 607 850 c 1
 697 850 l 1
 625 676 374 485 203 424 c 0
 196 422 l 1
 145 10 l 1
 33 10 l 1
 136 850 l 1
 248 850 l 1
 207 514 l 1x60
386 752 m 0xa0
 364 752 348 771 351 795 c 0
 354 819 375 838 397 838 c 0
 419 838 437 819 434 795 c 0
 431 771 408 752 386 752 c 0xa0
EndSplineSet
EndChar

StartChar: H
Encoding: 72 72 23
Width: 627
Flags: W
HStem: 830 20G<133.548 248 578.554 693>
LayerCount: 2
Fore
SplineSet
145 10 m 1
 33 10 l 1
 136 850 l 1
 248 850 l 1
 208 519 l 1
 530 433 l 1
 581 850 l 1
 693 850 l 1
 590 10 l 1
 478 10 l 1
 520 348 l 1
 197 434 l 1
 145 10 l 1
EndSplineSet
EndChar

StartChar: I
Encoding: 73 73 24
Width: 182
Flags: W
HStem: 830 20G<133.548 248>
VStem: 33 215
LayerCount: 2
Fore
SplineSet
145 10 m 1
 33 10 l 1
 136 850 l 1
 248 850 l 1
 145 10 l 1
EndSplineSet
EndChar

StartChar: J
Encoding: 74 74 25
Width: 578
Flags: W
HStem: 806 20G<340.538 356.662>
LayerCount: 2
Fore
SplineSet
586 316 m 1
 322 29 l 1
 340 183 l 1
 470 316 l 1
 373 448 l 1
 392 602 l 1
 586 316 l 1
308 407 m 1
 289 253 l 1
 95 540 l 1
 359 826 l 1
 341 672 l 1
 211 540 l 1
 308 407 l 1
EndSplineSet
EndChar

StartChar: K
Encoding: 75 75 26
Width: 486
Flags: W
HStem: 831 20G<133.548 248 411.897 552>
LayerCount: 2
Fore
SplineSet
145 10 m 1
 33 11 l 1
 136 851 l 1
 248 851 l 1
 220 619 l 1
 430 851 l 1
 552 851 l 1
 204 489 l 1
 145 10 l 1
EndSplineSet
EndChar

StartChar: L
Encoding: 76 76 27
Width: 368
Flags: W
LayerCount: 2
Fore
SplineSet
144 20 m 1
 34 20 l 1
 142 897 l 1
 427 745 l 1
 394 665 l 1
 233 740 l 1
 144 20 l 1
EndSplineSet
EndChar

StartChar: M
Encoding: 77 77 28
Width: 715
Flags: W
LayerCount: 2
Fore
SplineSet
205 507 m 1
 371 631 l 1
 232 727 l 1
 205 507 l 1
492 630 m 1
 627 507 l 1
 654 727 l 1
 492 630 l 1
679 20 m 1
 567 20 l 1
 619 438 l 1
 429 600 l 1
 198 437 l 1
 145 20 l 1
 34 20 l 1
 143 903 l 1
 190 904 l 1
 440 694 l 1
 741 904 l 1
 788 903 l 1
 679 20 l 1
EndSplineSet
EndChar

StartChar: N
Encoding: 78 78 29
Width: 549
Flags: W
HStem: 830 20G<313.562 428>
LayerCount: 2
Fore
SplineSet
554 367 m 1
 375 415 l 1
 325 10 l 1
 213 10 l 1
 267 444 l 1
 88 492 l 1
 119 573 l 1
 277 530 l 1
 316 850 l 1
 428 850 l 1
 386 501 l 1
 574 450 l 1
 554 367 l 1
EndSplineSet
EndChar

StartChar: O
Encoding: 79 79 30
Width: 375
Flags: W
HStem: 830 20G<133.548 248>
LayerCount: 2
Fore
SplineSet
145 10 m 1
 33 10 l 1
 136 850 l 1
 248 850 l 1
 213 558 l 1
 383 603 l 1
 394 523 l 1
 202 474 l 1
 191 384 l 1
 375 432 l 1
 386 352 l 1
 181 299 l 1
 145 10 l 1
EndSplineSet
EndChar

StartChar: P
Encoding: 80 80 31
Width: 377
Flags: W
LayerCount: 2
Fore
SplineSet
82 20 m 1
 35 21 l 1
 143 903 l 1
 191 904 l 1
 439 783 l 1
 406 703 l 1
 239 776 l 1
 162 148 l 1
 347 221 l 1
 360 141 l 1
 82 20 l 1
EndSplineSet
EndChar

StartChar: Q
Encoding: 81 81 32
Width: 433
Flags: W
HStem: 830 20G<384.522 499>
LayerCount: 2
Fore
SplineSet
82 430 m 1
 373 737 l 1
 387 850 l 1
 499 850 l 1
 396 10 l 1
 284 10 l 1
 298 123 l 1
 82 430 l 1
313 245 m 1
 359 615 l 1
 177 430 l 1
 313 245 l 1
EndSplineSet
EndChar

StartChar: R
Encoding: 82 82 33
Width: 600
Flags: W
HStem: 795 20G<129.54 276.208>
LayerCount: 2
Fore
SplineSet
392 416 m 1
 568 10 l 1
 453 10 l 1
 310 343 l 1
 323 450 l 1
 458 551 l 1
 233 726 l 1
 145 10 l 1
 33 10 l 1
 132 815 l 1
 251 815 l 1
 585 550 l 1
 392 416 l 1
EndSplineSet
EndChar

StartChar: S
Encoding: 83 83 34
Width: 538
Flags: W
HStem: 766 20G<126.51 245>
LayerCount: 2
Fore
SplineSet
64 264 m 1
 129 786 l 1
 245 786 l 1
 196 392 l 1
 211 398 l 0
 315 440 414 488 513 533 c 1
 565 532 l 1
 501 10 l 1
 384 10 l 1
 433 405 l 1
 418 399 l 0
 314 357 215 308 116 263 c 1
 64 264 l 1
EndSplineSet
EndChar

StartChar: T
Encoding: 84 84 35
Width: 558
Flags: W
LayerCount: 2
Fore
SplineSet
423 741 m 1
 334 20 l 1
 224 20 l 1
 313 741 l 1
 134 666 l 1
 120 747 l 1
 389 902 l 1
 618 747 l 1
 584 666 l 1
 423 741 l 1
EndSplineSet
EndChar

StartChar: U
Encoding: 85 85 36
Width: 616
Flags: W
HStem: 830 20G<133.548 259.905>
LayerCount: 2
Fore
SplineSet
136 850 m 1
 252 850 l 1
 584 10 l 1
 469 10 l 1
 222 633 l 1
 145 10 l 1
 33 10 l 1
 136 850 l 1
EndSplineSet
EndChar

StartChar: V
Encoding: 86 86 37
Width: 525
Flags: W
HStem: 791 59<308.18 358.291>
VStem: 306 54<792.305 848.116>
LayerCount: 2
Fore
SplineSet
145 10 m 1
 33 11 l 1
 136 851 l 1
 248 851 l 1
 220 615 l 1
 465 851 l 1
 587 851 l 1
 201 467 l 1
 188 359 l 1
 435 588 l 1
 556 588 l 1
 170 211 l 1
 145 10 l 1
330 791 m 0
 315 791 304 804 306 820 c 0
 308 836 322 850 337 850 c 0
 351 850 362 837 360 820 c 0
 358 804 345 791 330 791 c 0
EndSplineSet
EndChar

StartChar: W
Encoding: 87 87 38
Width: 521
Flags: W
HStem: 797 20G<132 275.303>
LayerCount: 2
Fore
SplineSet
233 722 m 1
 194 408 l 1
 445 566 l 1
 233 722 l 1
132 815 m 1
 251 817 l 1
 556 566 l 1
 182 308 l 1
 145 10 l 1
 33 10 l 1
 132 815 l 1
EndSplineSet
EndChar

StartChar: X
Encoding: 88 88 39
Width: 795
Flags: W
HStem: 786 79G<126.51 245 748.543 867>
LayerCount: 2
Fore
SplineSet
817 478 m 1
 701 478 l 1
 751 885 l 1
 867 885 l 1
 817 478 l 1
64 264 m 1
 129 786 l 1
 245 786 l 1
 196 392 l 1
 211 398 l 0
 315 440 414 488 513 533 c 1
 565 532 l 1
 501 10 l 1
 383 10 l 1
 432 405 l 1
 417 399 l 0
 313 357 215 308 116 263 c 1
 64 264 l 1
EndSplineSet
EndChar

StartChar: Y
Encoding: 89 89 40
Width: 616
Flags: W
HStem: 192 87<237.167 302.875> 830 20G<133.548 259.905>
VStem: 229 83<200.83 271.137>
LayerCount: 2
Fore
SplineSet
136 850 m 1
 252 850 l 1
 584 10 l 1
 469 10 l 1
 222 633 l 1
 145 10 l 1
 33 10 l 1
 136 850 l 1
265 192 m 0
 243 192 226 212 229 236 c 0
 232 260 253 279 275 279 c 0
 297 279 315 260 312 236 c 0
 309 212 287 192 265 192 c 0
EndSplineSet
EndChar

StartChar: Z
Encoding: 90 90 41
Width: 560
Flags: W
HStem: 865 20G<329.546 442>
LayerCount: 2
Fore
SplineSet
279 453 m 1
 332 885 l 1
 442 885 l 1
 389 453 l 1
 568 528 l 1
 582 447 l 1
 314 292 l 1
 84 447 l 1
 118 528 l 1
 279 453 l 1
EndSplineSet
EndChar

StartChar: a
Encoding: 97 97 42
Width: 373
Flags: W
HStem: 840 20G<135.524 334.833>
LayerCount: 2
Fore
SplineSet
34 20 m 1
 138 860 l 1
 259 860 l 1
 441 812 l 1
 408 732 l 1
 240 778 l 1
 227 676 l 1
 372 639 l 1
 338 561 l 1
 217 594 l 1
 146 20 l 1
 34 20 l 1
EndSplineSet
EndChar

StartChar: b
Encoding: 98 98 43
Width: 368
Flags: W
HStem: 840 20G<135.524 250>
LayerCount: 2
Fore
SplineSet
34 20 m 1
 138 860 l 1
 250 860 l 1
 217 598 l 1
 341 631 l 1
 357 553 l 1
 207 516 l 1
 195 414 l 1
 373 460 l 1
 384 381 l 1
 185 330 l 1
 146 20 l 1
 34 20 l 1
EndSplineSet
EndChar

StartChar: c
Encoding: 99 99 44
Width: 370
Flags: W
HStem: 865 20G<138.521 251>
VStem: 68 323
LayerCount: 2
Fore
SplineSet
68 296 m 1
 141 885 l 1
 251 885 l 1
 198 453 l 1
 377 528 l 1
 391 448 l 1
 68 296 l 1
EndSplineSet
EndChar

StartChar: d
Encoding: 100 100 45
Width: 386
Flags: W
VStem: 119 323
LayerCount: 2
Fore
SplineSet
376 359 m 1
 334 20 l 1
 224 20 l 1
 267 363 l 1
 265 365 l 0
 257 378 253 395 255 413 c 0
 257 431 265 448 277 461 c 0
 279 463 l 1
 313 740 l 1
 134 665 l 1
 119 745 l 1
 442 897 l 1
 389 467 l 1
 391 465 l 0
 401 450 407 432 405 413 c 0
 403 394 392 376 378 361 c 0
 376 359 l 1
EndSplineSet
EndChar

StartChar: e
Encoding: 101 101 46
Width: 715
Flags: W
LayerCount: 2
Fore
SplineSet
567 20 m 1
 656 738 l 1
 428 599 l 1
 235 738 l 1
 146 20 l 1
 34 20 l 1
 143 903 l 1
 190 904 l 1
 440 694 l 1
 741 904 l 1
 788 903 l 1
 679 20 l 1
 567 20 l 1
EndSplineSet
EndChar

StartChar: f
Encoding: 102 102 47
Width: 525
Flags: W
HStem: 841 20G<135.548 250 446.153 589>
LayerCount: 2
Fore
SplineSet
146 20 m 1
 35 21 l 1
 138 861 l 1
 250 861 l 1
 221 625 l 1
 467 861 l 1
 589 861 l 1
 203 477 l 1
 189 369 l 1
 436 598 l 1
 557 598 l 1
 171 221 l 1
 146 20 l 1
EndSplineSet
EndChar

StartChar: g
Encoding: 103 103 48
Width: 650
Flags: W
HStem: 840 20G<139 261.616 592.415 720>
LayerCount: 2
Fore
SplineSet
435 440 m 1
 616 20 l 1
 502 20 l 1
 365 338 l 1
 149 20 l 1
 35 20 l 1
 320 440 l 1
 139 860 l 1
 253 860 l 1
 390 542 l 1
 606 860 l 1
 720 860 l 1
 435 440 l 1
EndSplineSet
EndChar

StartChar: h
Encoding: 104 104 49
Width: 511
Flags: W
HStem: 378 104<88 243 368 522> 840 20G<300.513 415>
LayerCount: 2
Fore
SplineSet
256 482 m 1
 303 860 l 1
 415 860 l 1
 368 482 l 1
 535 482 l 1
 522 378 l 1
 355 378 l 1
 310 10 l 1
 198 10 l 1
 243 378 l 1
 75 378 l 1
 88 482 l 1
 256 482 l 1
EndSplineSet
EndChar

StartChar: i
Encoding: 105 105 50
Width: 182
Flags: W
HStem: 840 20G<135.524 250>
VStem: 34 216
LayerCount: 2
Fore
SplineSet
146 20 m 1
 34 20 l 1
 138 860 l 1
 250 860 l 1
 146 20 l 1
EndSplineSet
EndChar

StartChar: j
Encoding: 106 106 51
Width: 578
Flags: W
HStem: 816 20G<342.538 358.532>
LayerCount: 2
Fore
SplineSet
586 316 m 1
 322 29 l 1
 340 183 l 1
 470 316 l 1
 373 448 l 1
 392 602 l 1
 586 316 l 1
309 417 m 1
 290 263 l 1
 97 550 l 1
 361 836 l 1
 342 682 l 1
 213 550 l 1
 309 417 l 1
EndSplineSet
EndChar

StartChar: k
Encoding: 107 107 52
Width: 486
Flags: W
HStem: 841 20G<135.548 250 413.81 554>
LayerCount: 2
Fore
SplineSet
146 20 m 1
 35 21 l 1
 138 861 l 1
 250 861 l 1
 221 629 l 1
 432 861 l 1
 554 861 l 1
 205 499 l 1
 146 20 l 1
EndSplineSet
EndChar

StartChar: l
Encoding: 108 108 53
Width: 368
Flags: W
LayerCount: 2
Fore
SplineSet
144 20 m 1
 34 20 l 1
 142 897 l 1
 427 745 l 1
 394 665 l 1
 233 740 l 1
 144 20 l 1
EndSplineSet
EndChar

StartChar: m
Encoding: 109 109 54
Width: 715
Flags: W
LayerCount: 2
Fore
SplineSet
205 507 m 1
 371 631 l 1
 232 727 l 1
 205 507 l 1
492 630 m 1
 627 507 l 1
 654 727 l 1
 492 630 l 1
679 20 m 1
 567 20 l 1
 619 438 l 1
 429 600 l 1
 198 437 l 1
 145 20 l 1
 34 20 l 1
 143 903 l 1
 190 904 l 1
 440 694 l 1
 741 904 l 1
 788 903 l 1
 679 20 l 1
EndSplineSet
EndChar

StartChar: n
Encoding: 110 110 55
Width: 368
Flags: W
HStem: 840 20G<135.524 250>
LayerCount: 2
Fore
SplineSet
146 20 m 1
 34 20 l 1
 138 860 l 1
 250 860 l 1
 206 506 l 1
 393 456 l 1
 365 376 l 1
 196 422 l 1
 146 20 l 1
EndSplineSet
EndChar

StartChar: o
Encoding: 111 111 56
Width: 542
Flags: W
LayerCount: 2
Fore
SplineSet
448 444 m 1
 342 588 l 1
 200 444 l 1
 307 301 l 1
 448 444 l 1
84 444 m 1
 361 744 l 1
 564 444 l 1
 358 222 l 1
 502 10 l 1
 386 10 l 1
 288 144 l 1
 151 9 l 1
 38 10 l 1
 234 222 l 1
 84 444 l 1
EndSplineSet
EndChar

StartChar: p
Encoding: 112 112 57
Width: 377
Flags: W
LayerCount: 2
Fore
SplineSet
82 20 m 1
 35 21 l 1
 143 903 l 1
 191 904 l 1
 439 783 l 1
 406 703 l 1
 239 776 l 1
 162 148 l 1
 347 221 l 1
 360 141 l 1
 82 20 l 1
EndSplineSet
EndChar

StartChar: q
Encoding: 113 113 58
Width: 433
Flags: W
HStem: 840 20G<386.522 501>
LayerCount: 2
Fore
SplineSet
83 440 m 1
 375 747 l 1
 389 860 l 1
 501 860 l 1
 397 20 l 1
 285 20 l 1
 299 133 l 1
 83 440 l 1
313 245 m 1
 359 615 l 1
 177 430 l 1
 313 245 l 1
EndSplineSet
EndChar

StartChar: r
Encoding: 114 114 59
Width: 600
Flags: W
HStem: 805 20G<130.54 277.208>
LayerCount: 2
Fore
SplineSet
393 426 m 1
 569 20 l 1
 454 20 l 1
 311 353 l 1
 324 460 l 1
 459 561 l 1
 234 736 l 1
 146 20 l 1
 34 20 l 1
 133 825 l 1
 252 825 l 1
 586 560 l 1
 393 426 l 1
EndSplineSet
EndChar

StartChar: s
Encoding: 115 115 60
Width: 181
Flags: W
HStem: 865 20G<138.543 253>
VStem: 91 162
LayerCount: 2
Fore
SplineSet
203 478 m 1
 91 478 l 1
 141 885 l 1
 253 885 l 1
 203 478 l 1
EndSplineSet
EndChar

StartChar: t
Encoding: 116 116 61
Width: 370
Flags: W
VStem: 119 323
LayerCount: 2
Fore
SplineSet
442 897 m 1
 334 20 l 1
 224 20 l 1
 313 740 l 1
 134 665 l 1
 119 745 l 1
 442 897 l 1
EndSplineSet
EndChar

StartChar: u
Encoding: 117 117 62
Width: 616
Flags: W
HStem: 840 20G<135.524 261.881>
LayerCount: 2
Fore
SplineSet
138 860 m 1
 254 860 l 1
 585 20 l 1
 470 20 l 1
 223 643 l 1
 146 20 l 1
 34 20 l 1
 138 860 l 1
EndSplineSet
EndChar

StartChar: v
Encoding: 118 118 63
Width: 525
Flags: W
HStem: 801 59<309.18 359.291>
VStem: 307 54<802.305 857.847>
LayerCount: 2
Fore
SplineSet
146 20 m 1
 35 21 l 1
 138 861 l 1
 250 861 l 1
 221 625 l 1
 467 861 l 1
 589 861 l 1
 203 477 l 1
 189 369 l 1
 436 598 l 1
 557 598 l 1
 171 221 l 1
 146 20 l 1
331 801 m 0
 316 801 305 814 307 830 c 0
 309 846 324 860 339 860 c 0
 353 860 363 847 361 830 c 0
 359 814 346 801 331 801 c 0
EndSplineSet
EndChar

StartChar: w
Encoding: 119 119 64
Width: 521
Flags: W
HStem: 807 20G<133 277.303>
LayerCount: 2
Fore
SplineSet
233 722 m 1
 194 408 l 1
 445 566 l 1
 233 722 l 1
133 825 m 1
 253 827 l 1
 558 576 l 1
 183 318 l 1
 146 20 l 1
 34 20 l 1
 133 825 l 1
EndSplineSet
EndChar

StartChar: x
Encoding: 120 120 65
Width: 766
Flags: W
HStem: 128 74<399 518 643 750> 632 74<115 228 355 466> 776 20G<245.556 366>
LayerCount: 2
Fore
SplineSet
237 706 m 1
 248 796 l 1
 366 796 l 1
 355 706 l 1
 475 706 l 1
 466 632 l 1
 346 632 l 1
 317 402 l 1
 332 408 l 0
 436 450 534 497 633 542 c 1
 684 541 l 1
 643 202 l 1
 759 202 l 1
 750 128 l 1
 634 128 l 1
 620 20 l 1
 504 20 l 1
 518 128 l 1
 390 128 l 1
 399 202 l 1
 527 202 l 1
 553 415 l 1
 538 409 l 0
 434 367 335 318 236 273 c 1
 184 274 l 1
 228 632 l 1
 106 632 l 1
 115 706 l 1
 237 706 l 1
EndSplineSet
EndChar

StartChar: y
Encoding: 121 121 66
Width: 616
Flags: W
HStem: 192 87<237.167 302.875> 840 20G<135.524 261.881>
VStem: 229 83<200.83 271.137>
LayerCount: 2
Fore
SplineSet
138 860 m 1
 254 860 l 1
 585 20 l 1
 470 20 l 1
 223 643 l 1
 146 20 l 1
 34 20 l 1
 138 860 l 1
265 192 m 0
 243 192 226 212 229 236 c 0
 232 260 253 279 275 279 c 0
 297 279 315 260 312 236 c 0
 309 212 287 192 265 192 c 0
EndSplineSet
EndChar

StartChar: z
Encoding: 122 122 67
Width: 560
Flags: W
HStem: 865 20G<329.546 442>
LayerCount: 2
Fore
SplineSet
279 453 m 1
 332 885 l 1
 442 885 l 1
 389 453 l 1
 568 528 l 1
 582 447 l 1
 314 292 l 1
 84 447 l 1
 118 528 l 1
 279 453 l 1
EndSplineSet
EndChar

StartChar: Adieresis
Encoding: 196 196 68
Width: 627
Flags: W
HStem: 22 86<301.167 367.51> 830 20G<573.573 693>
VStem: 293 83<30.4686 100.137>
LayerCount: 2
Fore
SplineSet
514 346 m 1
 501 341 l 2
 381 298 194 161 118 10 c 1
 30 10 l 1
 101 183 348 375 519 436 c 0
 526 438 l 1
 576 850 l 1
 693 850 l 1
 590 10 l 1
 473 10 l 1
 514 346 l 1
339 108 m 0
 361 108 379 89 376 65 c 0
 373 41 351 22 329 22 c 0
 307 22 290 41 293 65 c 0
 296 89 317 108 339 108 c 0
EndSplineSet
EndChar

StartChar: Aring
Encoding: 197 197 69
Width: 570
Flags: W
HStem: 830 20G<334.561 454>
LayerCount: 2
Fore
SplineSet
425 442 m 1
 578 347 l 1
 524 271 l 1
 393 352 l 1
 351 10 l 1
 234 10 l 1
 277 362 l 1
 108 271 l 1
 74 347 l 1
 249 442 l 1
 97 537 l 1
 150 613 l 1
 297 522 l 1
 337 850 l 1
 454 850 l 1
 415 532 l 1
 566 613 l 1
 601 537 l 1
 425 442 l 1
EndSplineSet
EndChar

StartChar: AE
Encoding: 198 198 70
Width: 563
Flags: W
LayerCount: 2
Fore
SplineSet
433 776 m 1
 340 20 l 1
 288 19 l 1
 45 140 l 1
 78 220 l 1
 240 147 l 1
 333 903 l 1
 385 904 l 1
 628 783 l 1
 595 703 l 1
 433 776 l 1
EndSplineSet
EndChar

StartChar: Eth
Encoding: 208 208 71
Width: 429
Flags: W
HStem: 407 45<245.054 286.851> 830 20G<133.548 248>
VStem: 245 42<407.282 451.885>
LayerCount: 2
Fore
SplineSet
248 850 m 1
 234 737 l 1
 451 430 l 1
 159 123 l 1
 145 10 l 1
 33 10 l 1
 136 850 l 1
 248 850 l 1
356 430 m 1
 220 615 l 1
 174 244 l 1
 356 430 l 1
263 407 m 0
 252 407 244 418 245 430 c 0
 246 442 257 452 268 452 c 0
 279 452 288 442 287 430 c 0
 286 418 274 407 263 407 c 0
EndSplineSet
EndChar

StartChar: Odieresis
Encoding: 214 214 72
Width: 885
Flags: W
HStem: 831 20G<483.545 604>
LayerCount: 2
Fore
SplineSet
433 457 m 0
 438 460 l 1
 486 851 l 1
 604 851 l 1
 556 460 l 1
 561 457 l 0
 740 349 843 150 855 10 c 1
 729 10 l 1
 739 112 644 256 553 312 c 0
 539 320 l 1
 501 10 l 1
 383 10 l 1
 421 320 l 1
 405 312 l 0
 299 256 170 112 155 11 c 1
 29 11 l 1
 76 152 228 349 433 457 c 0
EndSplineSet
EndChar

StartChar: Oslash
Encoding: 216 216 73
Width: 568
Flags: W
HStem: 830 20G<323.593 443>
LayerCount: 2
Fore
SplineSet
340 10 m 1
 223 10 l 1
 255 268 l 1
 91 225 l 1
 80 306 l 1
 265 354 l 1
 276 442 l 1
 99 396 l 1
 87 476 l 1
 287 526 l 1
 326 850 l 1
 443 850 l 1
 407 557 l 1
 585 602 l 1
 588 521 l 1
 397 473 l 1
 387 387 l 1
 558 432 l 1
 578 354 l 1
 376 301 l 1
 340 10 l 1
EndSplineSet
EndChar

StartChar: Thorn
Encoding: 222 222 74
Width: 429
Flags: W
HStem: 830 20G<133.548 248>
LayerCount: 2
Fore
SplineSet
248 850 m 1
 234 737 l 1
 451 430 l 1
 159 123 l 1
 145 10 l 1
 33 10 l 1
 136 850 l 1
 248 850 l 1
356 430 m 1
 220 615 l 1
 174 245 l 1
 356 430 l 1
EndSplineSet
EndChar

StartChar: adieresis
Encoding: 228 228 75
Width: 627
Flags: W
HStem: 22 86<301.167 367.51> 840 20G<575.524 695>
VStem: 293 83<30.4686 100.137>
LayerCount: 2
Fore
SplineSet
516 356 m 1
 502 351 l 2
 382 308 195 171 119 20 c 1
 31 20 l 1
 102 193 349 385 520 446 c 0
 527 448 l 1
 578 860 l 1
 695 860 l 1
 591 20 l 1
 474 20 l 1
 516 356 l 1
339 108 m 0
 361 108 379 89 376 65 c 0
 373 41 351 22 329 22 c 0
 307 22 290 41 293 65 c 0
 296 89 317 108 339 108 c 0
EndSplineSet
EndChar

StartChar: aring
Encoding: 229 229 76
Width: 570
Flags: W
HStem: 840 20G<336.5 456>
LayerCount: 2
Fore
SplineSet
426 452 m 1
 579 357 l 1
 526 281 l 1
 394 362 l 1
 352 20 l 1
 235 20 l 1
 279 372 l 1
 110 281 l 1
 75 357 l 1
 250 452 l 1
 98 547 l 1
 151 623 l 1
 298 532 l 1
 339 860 l 1
 456 860 l 1
 417 542 l 1
 567 623 l 1
 602 547 l 1
 426 452 l 1
EndSplineSet
EndChar

StartChar: ae
Encoding: 230 230 77
Width: 563
Flags: W
LayerCount: 2
Fore
SplineSet
433 776 m 1
 340 20 l 1
 288 19 l 1
 45 140 l 1
 78 220 l 1
 240 147 l 1
 333 903 l 1
 385 904 l 1
 628 783 l 1
 595 703 l 1
 433 776 l 1
EndSplineSet
EndChar

StartChar: eth
Encoding: 240 240 78
Width: 429
Flags: W
HStem: 407 45<245.054 286.851> 840 20G<135.524 250>
VStem: 245 42<407.282 451.885>
LayerCount: 2
Fore
SplineSet
250 860 m 1
 236 747 l 1
 452 440 l 1
 160 133 l 1
 146 20 l 1
 34 20 l 1
 138 860 l 1
 250 860 l 1
356 430 m 1
 220 615 l 1
 174 244 l 1
 356 430 l 1
263 407 m 0
 252 407 244 418 245 430 c 0
 246 442 257 452 268 452 c 0
 279 452 288 442 287 430 c 0
 286 418 274 407 263 407 c 0
EndSplineSet
EndChar

StartChar: odieresis
Encoding: 246 246 79
Width: 885
Flags: W
HStem: 841 20G<485.545 606>
LayerCount: 2
Fore
SplineSet
434 467 m 0
 440 470 l 1
 488 861 l 1
 606 861 l 1
 558 470 l 1
 562 467 l 0
 741 359 844 160 856 20 c 1
 730 20 l 1
 740 122 646 266 555 322 c 0
 541 330 l 1
 502 20 l 1
 384 20 l 1
 423 330 l 1
 407 322 l 0
 301 266 172 122 157 21 c 1
 31 21 l 1
 78 162 229 359 434 467 c 0
EndSplineSet
EndChar

StartChar: oslash
Encoding: 248 248 80
Width: 568
Flags: W
HStem: 840 20G<325.531 445>
LayerCount: 2
Fore
SplineSet
341 20 m 1
 224 20 l 1
 256 278 l 1
 92 235 l 1
 81 316 l 1
 267 364 l 1
 277 452 l 1
 100 406 l 1
 89 486 l 1
 288 536 l 1
 328 860 l 1
 445 860 l 1
 409 567 l 1
 586 612 l 1
 589 531 l 1
 398 483 l 1
 388 397 l 1
 559 442 l 1
 580 364 l 1
 377 311 l 1
 341 20 l 1
EndSplineSet
EndChar

StartChar: thorn
Encoding: 254 254 81
Width: 429
Flags: W
HStem: 840 20G<135.524 250>
LayerCount: 2
Fore
SplineSet
250 860 m 1
 236 747 l 1
 452 440 l 1
 160 133 l 1
 146 20 l 1
 34 20 l 1
 138 860 l 1
 250 860 l 1
356 430 m 1
 220 615 l 1
 174 245 l 1
 356 430 l 1
EndSplineSet
EndChar

StartChar: Eng
Encoding: 330 330 82
Width: 542
Flags: W
LayerCount: 2
Fore
SplineSet
198 430 m 1
 304 279 l 1
 446 430 l 1
 341 581 l 1
 198 430 l 1
562 430 m 1
 285 124 l 1
 82 430 l 1
 360 736 l 1
 562 430 l 1
EndSplineSet
EndChar

StartChar: eng
Encoding: 331 331 83
Width: 662
Flags: W
HStem: 840 20G<172.526 287 612.5 736>
LayerCount: 2
Fore
SplineSet
252 578 m 1
 257 575 l 2
 268 568 276 558 283 546 c 0
 287 539 l 1
 295 543 l 0
 414 596 578 723 647 860 c 1
 736 860 l 1
 671 703 459 532 293 456 c 0
 289 454 l 1
 286 450 l 0
 276 425 257 402 234 388 c 0
 228 385 l 1
 183 20 l 1
 71 20 l 1
 118 395 l 1
 115 398 l 0
 94 418 82 448 86 482 c 0
 90 516 110 546 135 566 c 0
 139 569 l 1
 175 860 l 1
 287 860 l 1
 252 578 l 1
EndSplineSet
EndChar

StartChar: OE
Encoding: 338 338 84
Width: 568
Flags: W
HStem: 830 20G<323.593 443>
LayerCount: 2
Fore
SplineSet
340 10 m 1
 223 10 l 1
 255 268 l 1
 91 225 l 1
 80 306 l 1
 265 354 l 1
 276 442 l 1
 99 396 l 1
 87 476 l 1
 287 526 l 1
 326 850 l 1
 443 850 l 1
 407 557 l 1
 585 602 l 1
 588 521 l 1
 397 473 l 1
 387 387 l 1
 558 432 l 1
 578 354 l 1
 376 301 l 1
 340 10 l 1
EndSplineSet
EndChar

StartChar: oe
Encoding: 339 339 85
Width: 568
Flags: W
HStem: 840 20G<325.531 445>
LayerCount: 2
Fore
SplineSet
341 20 m 1
 224 20 l 1
 256 278 l 1
 92 235 l 1
 81 316 l 1
 267 364 l 1
 277 452 l 1
 100 406 l 1
 89 486 l 1
 288 536 l 1
 328 860 l 1
 445 860 l 1
 409 567 l 1
 586 612 l 1
 589 531 l 1
 398 483 l 1
 388 397 l 1
 559 442 l 1
 580 364 l 1
 377 311 l 1
 341 20 l 1
EndSplineSet
EndChar

StartChar: germandbls
Encoding: 223 223 86
Width: 435
Flags: W
HStem: 865 20G<138.543 253 392.543 507>
LayerCount: 2
Fore
SplineSet
203 478 m 1
 91 478 l 1
 141 885 l 1
 253 885 l 1
 203 478 l 1
457 478 m 1
 345 478 l 1
 395 885 l 1
 507 885 l 1
 457 478 l 1
EndSplineSet
EndChar
